<?xml version="1.0" standalone="no"?>
<!DOCTYPE svg PUBLIC "-//W3C//DTD SVG 20010904//EN"
 "http://www.w3.org/TR/2001/REC-SVG-20010904/DTD/svg10.dtd">
<svg version="1.0" xmlns="http://www.w3.org/2000/svg"
 width="1253.000000pt" height="1253.000000pt" viewBox="0 0 1253.000000 1253.000000"
 preserveAspectRatio="xMidYMid meet">
<metadata>
Created by potrace 1.11, written by Peter Selinger 2001-2013
</metadata>
<g transform="translate(0.000000,1253.000000) scale(0.100000,-0.100000)"
fill="#000000" stroke="none">
<path d="M0 6270 l0 -6251 3328 4 c3484 4 3373 2 3742 48 1079 133 2144 571
3009 1237 386 298 777 678 1073 1047 696 866 1153 1907 1312 2990 51 349 66
564 66 930 0 451 -32 794 -111 1205 -318 1641 -1293 3097 -2699 4025 -579 383
-1229 671 -1897 840 l-172 44 -108 -29 c-959 -251 -1920 -711 -2643 -1263
-817 -625 -1386 -1374 -1717 -2257 -102 -272 -189 -608 -242 -925 -26 -156
-37 -253 -61 -515 -19 -209 -20 -312 -20 -3792 l0 -3578 -562 0 -561 0 7 3733
c4 2058 11 3797 16 3877 23 361 199 989 432 1539 81 191 256 540 359 716 608
1038 1460 1845 2547 2407 95 50 236 119 315 154 l142 64 -2777 0 -2778 0 0
-6250z m5514 -2079 c3 -5 6 -379 6 -832 l0 -824 -97 0 -98 0 -5 87 c-3 47 -8
90 -12 94 -5 4 -8 2 -8 -5 0 -19 -78 -98 -131 -132 -154 -99 -384 -98 -541 3
-66 41 -148 133 -181 202 -77 157 -89 368 -30 538 81 235 272 373 513 372 127
-1 240 -43 316 -119 l44 -44 0 334 0 335 109 0 c61 0 112 -4 115 -9z m-4144
-66 c103 -15 201 -45 201 -60 0 -6 -10 -45 -22 -88 -18 -63 -25 -77 -38 -71
-157 66 -394 78 -562 28 -203 -60 -360 -231 -404 -439 -19 -90 -19 -260 0
-350 68 -319 352 -496 730 -455 56 6 135 20 175 31 40 11 76 16 80 12 15 -16
43 -144 34 -152 -5 -5 -31 -16 -59 -24 -113 -35 -171 -42 -365 -41 -228 0
-293 13 -450 91 -79 38 -109 61 -180 132 -97 98 -153 196 -191 336 -31 115
-31 345 0 459 102 378 417 602 851 605 58 1 148 -6 200 -14z m4816 -30 c35
-23 57 -79 51 -130 -4 -29 -15 -49 -41 -72 -30 -28 -43 -33 -86 -33 -91 0
-143 47 -143 128 0 104 128 167 219 107z m774 -265 l0 -160 160 0 160 0 0 -80
0 -80 -161 0 -160 0 3 -357 c3 -357 3 -358 27 -400 14 -24 38 -49 57 -58 36
-17 122 -20 171 -6 l32 9 6 -62 c4 -35 5 -72 3 -82 -5 -27 -67 -42 -174 -43
-175 -2 -276 60 -322 196 -13 40 -17 110 -20 426 l-3 377 -95 0 -94 0 0 80 0
80 95 0 95 0 0 135 0 134 38 10 c20 5 62 16 92 25 98 25 90 37 90 -144z
m-3208 -160 c206 -63 335 -271 326 -524 l-3 -81 -427 -3 c-487 -3 -438 8 -417
-94 34 -157 145 -259 314 -289 85 -14 225 -6 326 20 41 11 80 21 88 23 9 2 19
-18 32 -62 23 -83 24 -79 -8 -91 -89 -36 -175 -51 -318 -56 -132 -5 -161 -3
-235 16 -115 29 -180 63 -254 132 -109 101 -166 247 -166 421 0 377 259 636
610 611 41 -3 101 -13 132 -23z m2466 -567 l-3 -568 -110 0 -110 0 -3 568 -2
567 115 0 115 0 -2 -567z m-5208 -823 c178 -22 290 -70 375 -162 78 -84 100
-145 100 -283 0 -104 -2 -114 -32 -178 -43 -91 -126 -172 -215 -212 -37 -17
-68 -33 -68 -36 0 -4 11 -10 24 -13 40 -10 130 -101 164 -164 20 -37 54 -143
92 -285 33 -124 69 -248 80 -276 l20 -51 -119 0 -119 0 -26 77 c-14 43 -44
152 -67 243 -59 237 -105 316 -209 364 -38 18 -69 21 -202 24 l-158 4 0 -356
0 -356 -115 0 -115 0 0 819 0 819 113 11 c227 23 355 26 477 11z m3435 -86
c61 -29 88 -102 62 -167 -19 -44 -54 -68 -111 -74 -86 -10 -146 44 -146 130 0
96 103 155 195 111z m1915 -434 c119 -35 217 -125 274 -251 43 -95 68 -267 50
-336 l-6 -23 -420 0 -419 0 7 -52 c21 -165 110 -275 257 -320 60 -18 86 -20
200 -15 97 3 150 10 201 27 38 12 72 18 76 13 4 -4 14 -37 23 -73 19 -75 22
-71 -83 -99 -116 -32 -225 -44 -335 -38 -269 15 -446 141 -522 372 -22 68 -26
98 -27 200 0 138 15 212 68 320 119 242 385 353 656 275z m1009 24 l31 -6 0
-97 0 -97 -67 0 c-128 -1 -225 -69 -275 -193 -22 -54 -23 -69 -26 -413 l-3
-358 -110 0 -109 0 0 473 c0 259 -3 516 -7 570 l-6 97 95 0 c113 0 108 6 108
-135 l0 -90 31 55 c65 118 146 172 300 199 4 1 21 -2 38 -5z m-3906 -426 c81
-222 156 -432 166 -468 11 -38 21 -59 25 -50 3 8 23 65 44 125 21 61 95 264
163 452 l124 343 113 0 c61 0 112 -3 112 -6 0 -3 -104 -259 -231 -570 l-232
-564 -107 0 -106 0 -154 388 c-85 213 -186 469 -226 570 l-72 182 117 0 117 0
147 -402z m1027 -168 l0 -570 -110 0 -110 0 0 570 0 570 110 0 110 0 0 -570z
m308 543 c5 -16 66 -181 135 -368 68 -187 139 -385 157 -439 l33 -99 61 175
c34 96 108 306 166 467 l105 291 113 0 c61 0 112 -4 112 -9 0 -7 -287 -711
-432 -1059 l-30 -72 -106 0 -107 1 -223 562 c-122 309 -222 565 -222 570 0 4
51 7 114 7 l114 0 10 -27z"/>
<path d="M4870 3517 c-139 -39 -236 -168 -260 -342 -29 -221 60 -416 218 -475
77 -29 215 -25 280 9 65 34 118 87 149 149 28 56 28 59 28 252 0 217 -4 235
-80 319 -73 80 -223 120 -335 88z"/>
<path d="M3425 3512 c-97 -47 -178 -158 -192 -263 l-6 -39 318 0 318 0 -5 63
c-9 103 -67 195 -153 240 -30 15 -63 22 -130 24 -83 4 -95 2 -150 -25z"/>
<path d="M720 2111 l-65 -6 -3 -302 -2 -303 144 0 c159 0 227 10 297 46 111
56 160 127 167 243 2 42 -1 94 -7 117 -24 90 -103 160 -213 190 -62 17 -226
25 -318 15z"/>
<path d="M6063 1614 c-95 -34 -191 -160 -209 -272 l-7 -42 313 0 313 0 -6 59
c-9 109 -70 206 -154 247 -51 25 -191 29 -250 8z"/>
<path d="M2523 3661 c-75 -36 -133 -92 -172 -168 l-30 -58 -1 56 c0 31 -3 84
-6 118 l-7 61 -95 0 -95 0 7 -77 c3 -42 6 -298 6 -570 l0 -493 109 0 110 0 3
358 c3 339 4 360 25 410 52 127 151 197 281 197 l72 0 0 98 0 97 -72 0 c-60 0
-84 -5 -135 -29z"/>
<path d="M2197 1765 c-185 -51 -328 -202 -384 -406 -25 -89 -24 -291 1 -373
60 -198 196 -328 396 -377 69 -17 293 -17 375 0 108 22 185 51 185 69 0 20
-27 122 -33 129 -3 2 -35 -5 -72 -16 -38 -12 -110 -26 -162 -32 -281 -31 -471
97 -499 336 l-7 55 422 0 421 0 0 98 c0 119 -19 204 -66 292 -60 115 -158 194
-278 226 -64 17 -235 17 -299 -1z m263 -157 c94 -40 157 -134 168 -250 l5 -58
-317 0 -318 0 7 33 c12 55 45 128 76 172 86 120 242 162 379 103z"/>
</g>
</svg>
